<?xml version="1.0" encoding="UTF-8"?>
<!-- Generated by Pixelmator Pro 3.2.3 -->
<svg width="580" height="129" viewBox="0 0 580 129" xmlns="http://www.w3.org/2000/svg" xmlns:xlink="http://www.w3.org/1999/xlink">
    <linearGradient id="linearGradient1" x1="-0.423996" y1="64.960007" x2="579.031982" y2="64.960007" gradientUnits="userSpaceOnUse">
        <stop offset="0" stop-color="#007cff" stop-opacity="1"/>
        <stop offset="1" stop-color="#00bcff" stop-opacity="1"/>
    </linearGradient>
    <path id="JDpulse" fill="url(#linearGradient1)" fill-rule="evenodd" stroke="none" d="M 542.16803 107.872009 C 557.719971 107.872009 568.52002 101.536011 576.007996 92.032013 L 560.888 79.503998 C 555.271973 84.976013 550.088013 87.424011 543.607971 87.424011 C 535.112 87.424011 528.919983 83.104004 526.76001 74.608002 L 578.888 74.608002 C 579.031982 72.735992 579.031982 70.720001 579.031982 68.992004 C 579.031982 46.096008 566.64801 26.368011 539.719971 26.368011 C 516.679993 26.368011 500.40802 44.368011 500.40802 67.119995 L 500.40802 67.40799 C 500.40802 91.600006 517.687988 107.872009 542.16803 107.872009 Z M 526.328003 60.640015 C 527.768005 52.144012 532.664001 46.528015 539.864014 46.528015 C 547.35199 46.528015 552.392029 52 553.400024 60.640015 Z M 460.52002 107.727997 C 479.528015 107.727997 492.343994 98.799988 492.343994 81.664001 L 492.343994 81.376007 C 492.343994 66.256012 480.104004 60.928009 464.695984 56.608002 C 456.487976 54.160004 452.023987 52.720001 452.023987 49.696014 L 452.023987 49.40799 C 452.023987 47.247986 454.184021 45.664001 458.359985 45.664001 C 464.552002 45.664001 473.335999 48.399994 481.400024 52.864014 L 490.76001 35.584015 C 481.83197 29.824005 470.023987 26.511993 458.64801 26.511993 C 440.64801 26.511993 427.400024 35.727997 427.400024 52.287994 L 427.400024 52.575989 C 427.400024 68.272003 439.640015 73.455994 455.047974 77.488007 C 463.255981 79.791992 467.575989 81.088013 467.575989 84.112 L 467.575989 84.399994 C 467.575989 87.135986 465.416016 88.575989 460.664001 88.575989 C 452.599976 88.575989 442.807983 85.552002 433.880005 79.64801 L 423.656006 96.208008 C 434.455994 103.984009 447.416016 107.727997 460.52002 107.727997 Z M 386.935974 106 L 414.296021 106 L 414.296021 0.880005 L 386.935974 0.880005 Z M 320.984009 107.727997 C 332.072021 107.727997 339.271973 101.824005 344.312012 95.343994 L 344.312012 106 L 371.671997 106 L 371.671997 28.096008 L 344.312012 28.096008 L 344.312012 70.287994 C 344.312012 78.783997 339.416016 83.391998 332.935974 83.391998 C 326.312012 83.391998 321.848022 78.783997 321.848022 70.287994 L 321.848022 28.096008 L 294.488007 28.096008 L 294.488007 79.071991 C 294.488007 96.783997 304.424011 107.727997 320.984009 107.727997 Z M 197.720001 129.040009 L 225.079987 129.040009 L 225.079987 96.496002 C 230.119995 102.399994 237.032013 107.727997 248.839996 107.727997 C 267.272003 107.727997 283.256012 92.320007 283.256012 66.976013 L 283.256012 66.687988 C 283.256012 41.776001 267.272003 26.368011 248.696014 26.368011 C 237.032013 26.368011 230.40799 31.984009 225.079987 38.463989 L 225.079987 28.096008 L 197.720001 28.096008 Z M 240.343994 84.832001 C 231.559998 84.832001 224.503998 77.488007 224.503998 67.119995 L 224.503998 66.832001 C 224.503998 56.608002 231.559998 49.264008 240.343994 49.264008 C 249.272003 49.264008 256.328003 56.608002 256.328003 66.832001 L 256.328003 67.119995 C 256.328003 77.631989 249.272003 84.832001 240.343994 84.832001 Z M 89.144012 106 L 127.447998 106 C 163.735992 106 184.903992 84.399994 184.903992 55.312012 L 184.903992 55.023987 C 184.903992 25.936005 164.023987 5.200012 128.023987 5.200012 L 89.144012 5.200012 Z M 117.079987 81.231995 L 117.079987 29.967987 L 128.455994 29.967987 C 145.160004 29.967987 156.247986 39.328003 156.247986 55.455994 L 156.247986 55.743988 C 156.247986 72.015991 145.160004 81.231995 128.455994 81.231995 Z M 35 107.727997 C 46.520004 107.727997 56.024002 104.127991 62.64801 97.503998 C 69.415985 90.735992 72.584015 81.808014 72.584015 69.135986 L 72.584015 5.200012 L 44.792007 5.200012 L 44.792007 68.992004 C 44.792007 78.35199 40.328003 83.104004 33.272003 83.104004 C 27.080002 83.104004 22.472 79.64801 17.576004 73.743988 L -0.423996 90.735992 C 6.632004 100.384003 17.432007 107.727997 35 107.727997 Z"/>
</svg>
