<?xml version="1.0" encoding="UTF-8"?>
<!-- Generated by Pixelmator Pro 3.2.3 -->
<svg width="1024" height="768" viewBox="0 0 1024 768" xmlns="http://www.w3.org/2000/svg" xmlns:xlink="http://www.w3.org/1999/xlink">
    <linearGradient id="linearGradient1" x1="197.576004" y1="397.960007" x2="777.031982" y2="397.960007" gradientUnits="userSpaceOnUse">
        <stop offset="0" stop-color="#007cff" stop-opacity="1"/>
        <stop offset="1" stop-color="#00bcff" stop-opacity="1"/>
    </linearGradient>
    <path id="JDpulse" fill="url(#linearGradient1)" fill-rule="evenodd" stroke="none" d="M 740.16803 440.872009 C 755.719971 440.872009 766.52002 434.536011 774.007996 425.032013 L 758.888 412.503998 C 753.271973 417.976013 748.088013 420.424011 741.607971 420.424011 C 733.112 420.424011 726.919983 416.104004 724.76001 407.608002 L 776.888 407.608002 C 777.031982 405.735992 777.031982 403.720001 777.031982 401.992004 C 777.031982 379.096008 764.64801 359.368011 737.719971 359.368011 C 714.679993 359.368011 698.40802 377.368011 698.40802 400.119995 L 698.40802 400.40799 C 698.40802 424.600006 715.687988 440.872009 740.16803 440.872009 Z M 724.328003 393.640015 C 725.768005 385.144012 730.664001 379.528015 737.864014 379.528015 C 745.35199 379.528015 750.392029 385 751.400024 393.640015 Z M 658.52002 440.727997 C 677.528015 440.727997 690.343994 431.799988 690.343994 414.664001 L 690.343994 414.376007 C 690.343994 399.256012 678.104004 393.928009 662.695984 389.608002 C 654.487976 387.160004 650.023987 385.720001 650.023987 382.696014 L 650.023987 382.40799 C 650.023987 380.247986 652.184021 378.664001 656.359985 378.664001 C 662.552002 378.664001 671.335999 381.399994 679.400024 385.864014 L 688.76001 368.584015 C 679.83197 362.824005 668.023987 359.511993 656.64801 359.511993 C 638.64801 359.511993 625.400024 368.727997 625.400024 385.287994 L 625.400024 385.575989 C 625.400024 401.272003 637.640015 406.455994 653.047974 410.488007 C 661.255981 412.791992 665.575989 414.088013 665.575989 417.112 L 665.575989 417.399994 C 665.575989 420.135986 663.416016 421.575989 658.664001 421.575989 C 650.599976 421.575989 640.807983 418.552002 631.880005 412.64801 L 621.656006 429.208008 C 632.455994 436.984009 645.416016 440.727997 658.52002 440.727997 Z M 584.935974 439 L 612.296021 439 L 612.296021 333.880005 L 584.935974 333.880005 Z M 518.984009 440.727997 C 530.072021 440.727997 537.271973 434.824005 542.312012 428.343994 L 542.312012 439 L 569.671997 439 L 569.671997 361.096008 L 542.312012 361.096008 L 542.312012 403.287994 C 542.312012 411.783997 537.416016 416.391998 530.935974 416.391998 C 524.312012 416.391998 519.848022 411.783997 519.848022 403.287994 L 519.848022 361.096008 L 492.488007 361.096008 L 492.488007 412.071991 C 492.488007 429.783997 502.424011 440.727997 518.984009 440.727997 Z M 395.720001 462.040009 L 423.079987 462.040009 L 423.079987 429.496002 C 428.119995 435.399994 435.032013 440.727997 446.839996 440.727997 C 465.272003 440.727997 481.256012 425.320007 481.256012 399.976013 L 481.256012 399.687988 C 481.256012 374.776001 465.272003 359.368011 446.696014 359.368011 C 435.032013 359.368011 428.40799 364.984009 423.079987 371.463989 L 423.079987 361.096008 L 395.720001 361.096008 Z M 438.343994 417.832001 C 429.559998 417.832001 422.503998 410.488007 422.503998 400.119995 L 422.503998 399.832001 C 422.503998 389.608002 429.559998 382.264008 438.343994 382.264008 C 447.272003 382.264008 454.328003 389.608002 454.328003 399.832001 L 454.328003 400.119995 C 454.328003 410.631989 447.272003 417.832001 438.343994 417.832001 Z M 287.144012 439 L 325.447998 439 C 361.735992 439 382.903992 417.399994 382.903992 388.312012 L 382.903992 388.023987 C 382.903992 358.936005 362.023987 338.200012 326.023987 338.200012 L 287.144012 338.200012 Z M 315.079987 414.231995 L 315.079987 362.967987 L 326.455994 362.967987 C 343.160004 362.967987 354.247986 372.328003 354.247986 388.455994 L 354.247986 388.743988 C 354.247986 405.015991 343.160004 414.231995 326.455994 414.231995 Z M 233 440.727997 C 244.520004 440.727997 254.024002 437.127991 260.64801 430.503998 C 267.415985 423.735992 270.584015 414.808014 270.584015 402.135986 L 270.584015 338.200012 L 242.792007 338.200012 L 242.792007 401.992004 C 242.792007 411.35199 238.328003 416.104004 231.272003 416.104004 C 225.080002 416.104004 220.472 412.64801 215.576004 406.743988 L 197.576004 423.735992 C 204.632004 433.384003 215.432007 440.727997 233 440.727997 Z"/>
</svg>
